<mxfile host="app.diagrams.net" agent="Mozilla/5.0 (X11; Ubuntu; Linux x86_64; rv:109.0) Gecko/20100101 Firefox/110.0" version="24.7.14">
  <diagram id="prtHgNgQTEPvFCAcTncT" name="Page-1">
    <mxGraphModel dx="1157" dy="666" grid="1" gridSize="10" guides="1" tooltips="1" connect="1" arrows="1" fold="1" page="1" pageScale="1" pageWidth="827" pageHeight="1169" math="0" shadow="0">
      <root>
        <mxCell id="0" />
        <mxCell id="1" parent="0" />
        <mxCell id="2Krlndj7j0bMPt4llisJ-2" value="Web-server container" style="swimlane;whiteSpace=wrap;html=1;" vertex="1" parent="1">
          <mxGeometry x="1020" y="80" width="290" height="420" as="geometry" />
        </mxCell>
        <mxCell id="2Krlndj7j0bMPt4llisJ-3" value="Web server" style="swimlane;whiteSpace=wrap;html=1;" vertex="1" parent="2Krlndj7j0bMPt4llisJ-2">
          <mxGeometry x="50" y="70" width="190" height="130" as="geometry">
            <mxRectangle x="70" y="70" width="100" height="30" as="alternateBounds" />
          </mxGeometry>
        </mxCell>
        <mxCell id="2Krlndj7j0bMPt4llisJ-6" value="&lt;ul&gt;&lt;li&gt;Website&lt;/li&gt;&lt;li&gt;Apache status page&lt;br&gt;&lt;/li&gt;&lt;/ul&gt;" style="text;html=1;align=left;verticalAlign=middle;resizable=0;points=[];autosize=1;strokeColor=none;fillColor=none;" vertex="1" parent="2Krlndj7j0bMPt4llisJ-3">
          <mxGeometry x="10" y="50" width="170" height="70" as="geometry" />
        </mxCell>
        <mxCell id="2Krlndj7j0bMPt4llisJ-7" value="port : 8080" style="text;html=1;align=center;verticalAlign=middle;resizable=0;points=[];autosize=1;strokeColor=none;fillColor=none;" vertex="1" parent="2Krlndj7j0bMPt4llisJ-3">
          <mxGeometry x="55" y="30" width="80" height="30" as="geometry" />
        </mxCell>
        <mxCell id="2Krlndj7j0bMPt4llisJ-5" value="Status API" style="swimlane;whiteSpace=wrap;html=1;" vertex="1" parent="2Krlndj7j0bMPt4llisJ-2">
          <mxGeometry x="50" y="240" width="190" height="130" as="geometry" />
        </mxCell>
        <mxCell id="2Krlndj7j0bMPt4llisJ-8" value="port : 8081" style="text;html=1;align=center;verticalAlign=middle;resizable=0;points=[];autosize=1;strokeColor=none;fillColor=none;" vertex="1" parent="2Krlndj7j0bMPt4llisJ-5">
          <mxGeometry x="55" y="30" width="80" height="30" as="geometry" />
        </mxCell>
        <mxCell id="2Krlndj7j0bMPt4llisJ-9" value="&lt;ul&gt;&lt;li&gt;System status page&lt;br&gt;&lt;/li&gt;&lt;/ul&gt;" style="text;html=1;align=left;verticalAlign=middle;resizable=0;points=[];autosize=1;strokeColor=none;fillColor=none;" vertex="1" parent="2Krlndj7j0bMPt4llisJ-5">
          <mxGeometry x="10" y="60" width="170" height="50" as="geometry" />
        </mxCell>
        <mxCell id="2Krlndj7j0bMPt4llisJ-10" value="Graphana container" style="swimlane;whiteSpace=wrap;html=1;" vertex="1" parent="1">
          <mxGeometry x="510" y="80" width="190" height="70" as="geometry">
            <mxRectangle x="70" y="70" width="100" height="30" as="alternateBounds" />
          </mxGeometry>
        </mxCell>
        <mxCell id="2Krlndj7j0bMPt4llisJ-12" value="port : 80" style="text;html=1;align=center;verticalAlign=middle;resizable=0;points=[];autosize=1;strokeColor=none;fillColor=none;" vertex="1" parent="2Krlndj7j0bMPt4llisJ-10">
          <mxGeometry x="60" y="30" width="70" height="30" as="geometry" />
        </mxCell>
        <mxCell id="2Krlndj7j0bMPt4llisJ-13" value="MariaDB container" style="swimlane;whiteSpace=wrap;html=1;" vertex="1" parent="1">
          <mxGeometry x="510" y="240" width="190" height="70" as="geometry">
            <mxRectangle x="70" y="70" width="100" height="30" as="alternateBounds" />
          </mxGeometry>
        </mxCell>
        <mxCell id="2Krlndj7j0bMPt4llisJ-14" value="port : 3306" style="text;html=1;align=center;verticalAlign=middle;resizable=0;points=[];autosize=1;strokeColor=none;fillColor=none;" vertex="1" parent="2Krlndj7j0bMPt4llisJ-13">
          <mxGeometry x="55" y="30" width="80" height="30" as="geometry" />
        </mxCell>
        <mxCell id="2Krlndj7j0bMPt4llisJ-15" value="Monitoring Agent container" style="swimlane;whiteSpace=wrap;html=1;" vertex="1" parent="1">
          <mxGeometry x="510" y="400" width="190" height="70" as="geometry">
            <mxRectangle x="70" y="70" width="100" height="30" as="alternateBounds" />
          </mxGeometry>
        </mxCell>
        <mxCell id="2Krlndj7j0bMPt4llisJ-16" value="Python script" style="text;html=1;align=center;verticalAlign=middle;resizable=0;points=[];autosize=1;strokeColor=none;fillColor=none;" vertex="1" parent="2Krlndj7j0bMPt4llisJ-15">
          <mxGeometry x="50" y="30" width="90" height="30" as="geometry" />
        </mxCell>
        <mxCell id="2Krlndj7j0bMPt4llisJ-17" value="" style="endArrow=classic;startArrow=classic;html=1;rounded=0;" edge="1" parent="1">
          <mxGeometry width="50" height="50" relative="1" as="geometry">
            <mxPoint x="720" y="440" as="sourcePoint" />
            <mxPoint x="1000" y="290" as="targetPoint" />
          </mxGeometry>
        </mxCell>
        <mxCell id="2Krlndj7j0bMPt4llisJ-18" value="" style="endArrow=classic;html=1;rounded=0;" edge="1" parent="1">
          <mxGeometry width="50" height="50" relative="1" as="geometry">
            <mxPoint x="604.64" y="390" as="sourcePoint" />
            <mxPoint x="604.64" y="320" as="targetPoint" />
          </mxGeometry>
        </mxCell>
        <mxCell id="2Krlndj7j0bMPt4llisJ-19" value="" style="endArrow=classic;html=1;rounded=0;" edge="1" parent="1">
          <mxGeometry width="50" height="50" relative="1" as="geometry">
            <mxPoint x="604.47" y="230" as="sourcePoint" />
            <mxPoint x="604.47" y="160" as="targetPoint" />
          </mxGeometry>
        </mxCell>
        <mxCell id="2Krlndj7j0bMPt4llisJ-20" value="Docker compose" style="swimlane;whiteSpace=wrap;html=1;" vertex="1" parent="1">
          <mxGeometry x="460" y="10" width="900" height="540" as="geometry" />
        </mxCell>
      </root>
    </mxGraphModel>
  </diagram>
</mxfile>
